<svg width="1400" height="900" viewBox="0 0 1400 900" fill="none" xmlns="http://www.w3.org/2000/svg">
  <defs>
    <linearGradient id="bg" x1="0" y1="0" x2="1" y2="1">
      <stop offset="0%" stop-color="#FEF3C7" />
      <stop offset="100%" stop-color="#FDE68A" />
    </linearGradient>
    <linearGradient id="card" x1="0" y1="0" x2="1" y2="1">
      <stop offset="0%" stop-color="#FFFFFF" stop-opacity="0.95" />
      <stop offset="100%" stop-color="#FFF7E8" stop-opacity="0.95" />
    </linearGradient>
  </defs>
  <rect width="1400" height="900" rx="48" fill="url(#bg)" />
  <rect x="80" y="80" width="1240" height="120" rx="60" fill="white" fill-opacity="0.7" stroke="#78350F" stroke-opacity="0.2" stroke-width="2" />
  <circle cx="150" cy="140" r="36" fill="#78350F" />
  <text x="150" y="150" text-anchor="middle" font-family="'Playfair Display SC', serif" font-size="28" fill="#FEF3C7">A</text>
  <text x="210" y="130" font-family="'Playfair Display SC', serif" font-size="26" fill="#451A03">Arbor Coffee</text>
  <text x="210" y="155" font-family="'Karla', sans-serif" font-size="12" letter-spacing="6" fill="#92400E">SLOW BAR</text>
  <rect x="80" y="240" width="760" height="420" rx="32" fill="url(#card)" stroke="#92400E" stroke-opacity="0.15" stroke-width="2" />
  <text x="130" y="320" font-family="'Karla', sans-serif" font-size="12" letter-spacing="6" fill="#92400E">NEIGHBORHOOD COFFEE HOUSE</text>
  <text x="130" y="380" font-family="'Playfair Display SC', serif" font-size="56" fill="#451A03">A quiet ritual</text>
  <text x="130" y="440" font-family="'Playfair Display SC', serif" font-size="56" fill="#451A03">for coffee people.</text>
  <text x="130" y="500" font-family="'Karla', sans-serif" font-size="18" fill="#6B360C">Single-origin espresso · Slow bar pour-overs · Seasonal pastries</text>
  <rect x="130" y="540" width="210" height="52" rx="26" fill="#78350F" />
  <text x="235" y="573" text-anchor="middle" font-family="'Karla', sans-serif" font-size="16" fill="#FEF3C7">Explore the menu</text>
  <rect x="360" y="540" width="220" height="52" rx="26" fill="none" stroke="#92400E" stroke-opacity="0.4" stroke-width="2" />
  <text x="470" y="573" text-anchor="middle" font-family="'Karla', sans-serif" font-size="16" fill="#78350F">See hours & location</text>
  <rect x="880" y="260" width="440" height="400" rx="36" fill="#FFFFFF" fill-opacity="0.9" stroke="#92400E" stroke-opacity="0.15" stroke-width="2" />
  <text x="920" y="320" font-family="'Playfair Display SC', serif" font-size="28" fill="#451A03">Today’s pour-over</text>
  <text x="920" y="350" font-family="'Karla', sans-serif" font-size="12" letter-spacing="6" fill="#92400E">ETHIOPIA GUJI</text>
  <text x="920" y="395" font-family="'Karla', sans-serif" font-size="16" fill="#6B360C">Floral · Honeyed · Citrus bright</text>
  <rect x="920" y="430" width="360" height="10" rx="5" fill="#92400E" fill-opacity="0.15" />
  <rect x="920" y="470" width="360" height="10" rx="5" fill="#92400E" fill-opacity="0.15" />
  <rect x="920" y="510" width="360" height="10" rx="5" fill="#92400E" fill-opacity="0.15" />
  <rect x="80" y="700" width="1240" height="140" rx="28" fill="#78350F" />
  <text x="130" y="775" font-family="'Playfair Display SC', serif" font-size="36" fill="#FEF3C7">Ready for a slow morning?</text>
  <text x="130" y="815" font-family="'Karla', sans-serif" font-size="16" fill="#FDE68A">Reserve a table · Espresso flights · Riverside Market Lane 58</text>
  <rect x="1060" y="760" width="210" height="52" rx="26" fill="#FBBF24" />
  <text x="1165" y="792" text-anchor="middle" font-family="'Karla', sans-serif" font-size="16" fill="#451A03">Plan your visit</text>
</svg>
